<svg width="183" height="46" viewBox="0 0 183 46" fill="none" xmlns="http://www.w3.org/2000/svg">
<path d="M31.3871 23.0032C31.3871 28.1092 27.2478 32.2485 22.1417 32.2485C17.0356 32.2485 12.8964 28.1092 12.8964 23.0032C12.8964 17.8971 17.0356 13.7578 22.1417 13.7578C27.2478 13.7578 31.3871 17.8971 31.3871 23.0032Z" fill="#F8FEFF"/>
<path d="M14.0119 7.40139C15.7998 9.18923 15.7998 12.0879 14.0119 13.8757L13.0149 14.8728C11.2271 16.6606 8.32839 16.6606 6.54055 14.8728L1.34088 9.6731C-0.44696 7.88525 -0.446961 4.98659 1.34088 3.19875L2.33791 2.20172C4.12575 0.413879 7.02441 0.413881 8.81225 2.20172L14.0119 7.40139Z" fill="#F8FEFF"/>
<path d="M30.2654 38.5982C28.4776 36.8103 28.4776 33.9117 30.2654 32.1238L31.2624 31.1268C33.0503 29.339 35.9489 29.339 37.7368 31.1268L42.9364 36.3265C44.7243 38.1143 44.7243 41.013 42.9364 42.8008L41.9394 43.7979C40.1516 45.5857 37.2529 45.5857 35.4651 43.7979L30.2654 38.5982Z" fill="#F8FEFF"/>
<path d="M6.66894 31.0203C8.45678 29.2325 11.3554 29.2325 13.1433 31.0203L14.1403 32.0174C15.9282 33.8052 15.9282 36.7039 14.1403 38.4917L8.94065 43.6914C7.1528 45.4792 4.25414 45.4792 2.4663 43.6914L1.46927 42.6943C-0.318571 40.9065 -0.318569 38.0078 1.46927 36.22L6.66894 31.0203Z" fill="#FFD2D7"/>
<path d="M35.4865 2.20202C37.2744 0.414183 40.1731 0.414182 41.9609 2.20202L42.9579 3.19905C44.7458 4.98689 44.7458 7.88555 42.9579 9.6734L37.7583 14.8731C35.9704 16.6609 33.0717 16.6609 31.2839 14.8731L30.2869 13.876C28.499 12.0882 28.499 9.18954 30.2869 7.4017L35.4865 2.20202Z" fill="#F8FEFF"/>
<path d="M70.3405 22.1558C71.1872 22.2895 71.9558 22.6348 72.6465 23.1918C73.3595 23.7488 73.9165 24.4395 74.3175 25.2639C74.7408 26.0882 74.9525 26.9683 74.9525 27.904C74.9525 29.0848 74.6517 30.1543 74.0501 31.1123C73.4486 32.0481 72.5685 32.7944 71.41 33.3514C70.2737 33.8862 68.9258 34.1535 67.3662 34.1535H58.677V10.8599H67.032C68.6139 10.8599 69.9618 11.1273 71.0758 11.662C72.1898 12.1744 73.0253 12.8762 73.5823 13.7674C74.1393 14.6586 74.4178 15.6612 74.4178 16.7752C74.4178 18.1566 74.039 19.304 73.2815 20.2175C72.5462 21.1087 71.5659 21.7548 70.3405 22.1558ZM61.7182 20.9193H66.8315C68.2574 20.9193 69.3602 20.5851 70.14 19.9167C70.9198 19.2483 71.3097 18.3237 71.3097 17.1428C71.3097 15.962 70.9198 15.0374 70.14 14.369C69.3602 13.7006 68.2351 13.3664 66.7646 13.3664H61.7182V20.9193ZM67.0988 31.647C68.6138 31.647 69.7947 31.2906 70.6413 30.5776C71.488 29.8646 71.9113 28.8732 71.9113 27.6032C71.9113 26.311 71.4657 25.2973 70.5745 24.562C69.6833 23.8045 68.4913 23.4258 66.9986 23.4258H61.7182V31.647H67.0988Z" fill="#F8FEFF"/>
<path d="M82.8824 9.42287V34.1535H79.8412V9.42287H82.8824Z" fill="#F8FEFF"/>
<path d="M90.3047 12.8651C89.7254 12.8651 89.2353 12.6646 88.8342 12.2636C88.4332 11.8625 88.2327 11.3724 88.2327 10.7931C88.2327 10.2138 88.4332 9.72365 88.8342 9.32261C89.2353 8.92157 89.7254 8.72105 90.3047 8.72105C90.8617 8.72105 91.3296 8.92157 91.7083 9.32261C92.1094 9.72365 92.3099 10.2138 92.3099 10.7931C92.3099 11.3724 92.1094 11.8625 91.7083 12.2636C91.3296 12.6646 90.8617 12.8651 90.3047 12.8651ZM91.7752 15.8395V34.1535H88.734V15.8395H91.7752Z" fill="#F8FEFF"/>
<path d="M106.55 15.5053C108.778 15.5053 110.582 16.1848 111.964 17.5439C113.345 18.8807 114.036 20.819 114.036 23.3589V34.1535H111.028V23.7934C111.028 21.9664 110.571 20.5739 109.658 19.6159C108.744 18.6356 107.497 18.1454 105.915 18.1454C104.311 18.1454 103.03 18.6467 102.072 19.6493C101.136 20.6519 100.668 22.1112 100.668 24.0273V34.1535H97.6267V15.8395H100.668V18.4462C101.27 17.5105 102.083 16.7864 103.108 16.2739C104.155 15.7615 105.302 15.5053 106.55 15.5053Z" fill="#F8FEFF"/>
<path d="M129.23 34.1535L124.886 27.3359L120.708 34.1535H117.533L123.448 25.0633L117.533 15.8395H120.975L125.32 22.6237L129.464 15.8395H132.639L126.757 24.8962L132.672 34.1535H129.23Z" fill="#F8FEFF"/>
<path d="M154.279 10.8599V34.1535H151.238V23.5929H139.374V34.1535H136.332V10.8599H139.374V21.0864H151.238V10.8599H154.279Z" fill="#F8FEFF"/>
<path d="M178.822 38.5649L174.176 33.9196C173.04 34.2315 171.882 34.3875 170.701 34.3875C168.54 34.3875 166.568 33.8862 164.785 32.8836C163.003 31.8587 161.588 30.4439 160.541 28.6392C159.516 26.8123 159.004 24.7626 159.004 22.49C159.004 20.2175 159.516 18.1789 160.541 16.3742C161.588 14.5472 163.003 13.1325 164.785 12.1299C166.568 11.105 168.54 10.5926 170.701 10.5926C172.884 10.5926 174.867 11.105 176.649 12.1299C178.432 13.1325 179.835 14.5361 180.86 16.3408C181.885 18.1454 182.398 20.1952 182.398 22.49C182.398 24.718 181.907 26.7232 180.927 28.5056C179.947 30.288 178.599 31.6916 176.883 32.7165L182.765 38.5649H178.822ZM162.112 22.49C162.112 24.3392 162.479 25.9657 163.215 27.3693C163.972 28.7729 164.997 29.8535 166.289 30.611C167.604 31.3685 169.074 31.7473 170.701 31.7473C172.327 31.7473 173.786 31.3685 175.079 30.611C176.393 29.8535 177.418 28.7729 178.153 27.3693C178.911 25.9657 179.29 24.3392 179.29 22.49C179.29 20.6185 178.911 18.9921 178.153 17.6107C177.418 16.2071 176.404 15.1265 175.112 14.369C173.82 13.6115 172.349 13.2327 170.701 13.2327C169.052 13.2327 167.582 13.6115 166.289 14.369C164.997 15.1265 163.972 16.2071 163.215 17.6107C162.479 18.9921 162.112 20.6185 162.112 22.49Z" fill="#F8FEFF"/>
</svg>
