<svg width="237" height="50" viewBox="0 0 237 50" fill="none" xmlns="http://www.w3.org/2000/svg">
<circle cx="25.003" cy="25.003" r="9.61652" fill="#F8FEFF"/>
<rect x="19.9141" y="12.1427" width="10.9903" height="17.1724" rx="5.49516" transform="rotate(135 19.9141 12.1427)" fill="#F8FEFF"/>
<rect x="30.0859" y="37.8573" width="10.9903" height="17.1724" rx="5.49516" transform="rotate(-45 30.0859 37.8573)" fill="#F8FEFF"/>
<rect x="12.2761" y="29.9749" width="10.9903" height="17.1724" rx="5.49516" transform="rotate(45 12.2761 29.9749)" fill="#FFD2D7"/>
<rect x="42.251" width="10.9903" height="17.1724" rx="5.49516" transform="rotate(45 42.251 0)" fill="#F8FEFF"/>
<path d="M84.1348 14.0229V38.0614H80.9736V20.1367L72.9839 38.0614H70.7607L62.7363 20.102V38.0614H59.5752V14.0229H62.9795L71.8723 33.8928L80.7652 14.0229H84.1348Z" fill="#F8FEFF"/>
<path d="M91.8232 15.9335C91.2211 15.9335 90.7116 15.725 90.2947 15.3082C89.8779 14.8913 89.6694 14.3818 89.6694 13.7797C89.6694 13.1776 89.8779 12.6681 90.2947 12.2513C90.7116 11.8344 91.2211 11.626 91.8232 11.626C92.4021 11.626 92.8885 11.8344 93.2822 12.2513C93.699 12.6681 93.9074 13.1776 93.9074 13.7797C93.9074 14.3818 93.699 14.8913 93.2822 15.3082C92.8885 15.725 92.4021 15.9335 91.8232 15.9335ZM93.3516 19.0251V38.0614H90.1905V19.0251H93.3516Z" fill="#F8FEFF"/>
<path d="M98.2529 28.5085C98.2529 26.54 98.6466 24.8263 99.434 23.3673C100.221 21.8852 101.31 20.7388 102.699 19.9283C104.112 19.1177 105.722 18.7125 107.528 18.7125C109.867 18.7125 111.789 19.2799 113.294 20.4146C114.823 21.5494 115.83 23.1242 116.317 25.1389H112.912C112.588 23.981 111.951 23.0663 111.002 22.3947C110.075 21.7231 108.917 21.3873 107.528 21.3873C105.722 21.3873 104.263 22.0126 103.151 23.2631C102.039 24.4905 101.484 26.239 101.484 28.5085C101.484 30.8012 102.039 32.5728 103.151 33.8234C104.263 35.0739 105.722 35.6992 107.528 35.6992C108.917 35.6992 110.075 35.375 111.002 34.7265C111.928 34.0781 112.565 33.1518 112.912 31.9475H116.317C115.807 33.8928 114.788 35.456 113.26 36.6371C111.731 37.795 109.821 38.374 107.528 38.374C105.722 38.374 104.112 37.9687 102.699 37.1582C101.31 36.3476 100.221 35.2013 99.434 33.7192C98.6466 32.237 98.2529 30.5001 98.2529 28.5085Z" fill="#F8FEFF"/>
<path d="M124.39 22.1168C124.946 21.0283 125.734 20.183 126.752 19.5809C127.795 18.9788 129.057 18.6777 130.539 18.6777V21.9431H129.705C126.162 21.9431 124.39 23.8652 124.39 27.7095V38.0614H121.229V19.0251H124.39V22.1168Z" fill="#F8FEFF"/>
<path d="M143.185 38.374C141.402 38.374 139.781 37.9687 138.322 37.1582C136.886 36.3476 135.751 35.2013 134.917 33.7192C134.107 32.2139 133.702 30.477 133.702 28.5085C133.702 26.5632 134.118 24.8495 134.952 23.3673C135.809 21.862 136.967 20.7157 138.426 19.9283C139.885 19.1177 141.518 18.7125 143.324 18.7125C145.13 18.7125 146.763 19.1177 148.222 19.9283C149.681 20.7157 150.827 21.8504 151.661 23.3326C152.518 24.8147 152.946 26.54 152.946 28.5085C152.946 30.477 152.506 32.2139 151.626 33.7192C150.769 35.2013 149.6 36.3476 148.118 37.1582C146.636 37.9687 144.991 38.374 143.185 38.374ZM143.185 35.595C144.32 35.595 145.385 35.3287 146.381 34.796C147.377 34.2634 148.176 33.4644 148.778 32.3991C149.403 31.3338 149.716 30.037 149.716 28.5085C149.716 26.98 149.415 25.6832 148.813 24.6179C148.21 23.5526 147.423 22.7652 146.45 22.2557C145.478 21.7231 144.424 21.4567 143.289 21.4567C142.131 21.4567 141.066 21.7231 140.093 22.2557C139.144 22.7652 138.38 23.5526 137.801 24.6179C137.222 25.6832 136.932 26.98 136.932 28.5085C136.932 30.0601 137.21 31.3686 137.766 32.4339C138.345 33.4992 139.109 34.2981 140.059 34.8308C141.008 35.3403 142.05 35.595 143.185 35.595Z" fill="#F8FEFF"/>
<path d="M160.959 22.5684C161.607 21.4336 162.556 20.5073 163.807 19.7893C165.058 19.0714 166.482 18.7125 168.08 18.7125C169.793 18.7125 171.334 19.1177 172.7 19.9283C174.066 20.7388 175.143 21.8852 175.93 23.3673C176.718 24.8263 177.112 26.5285 177.112 28.4738C177.112 30.3959 176.718 32.1096 175.93 33.6149C175.143 35.1202 174.055 36.2897 172.665 37.1235C171.299 37.9572 169.77 38.374 168.08 38.374C166.436 38.374 164.988 38.0151 163.738 37.2971C162.51 36.5792 161.584 35.6645 160.959 34.5529V38.0614H157.797V12.3555H160.959V22.5684ZM173.881 28.4738C173.881 27.0379 173.591 25.7874 173.013 24.7221C172.434 23.6568 171.646 22.8463 170.65 22.2905C169.678 21.7346 168.601 21.4567 167.42 21.4567C166.262 21.4567 165.185 21.7462 164.189 22.3252C163.216 22.881 162.429 23.7031 161.827 24.7916C161.248 25.8569 160.959 27.0958 160.959 28.5085C160.959 29.9443 161.248 31.2065 161.827 32.2949C162.429 33.3602 163.216 34.1823 164.189 34.7613C165.185 35.3171 166.262 35.595 167.42 35.595C168.601 35.595 169.678 35.3171 170.65 34.7613C171.646 34.1823 172.434 33.3602 173.013 32.2949C173.591 31.2065 173.881 29.9327 173.881 28.4738Z" fill="#F8FEFF"/>
<path d="M185.128 12.3555V38.0614H181.967V12.3555H185.128Z" fill="#F8FEFF"/>
<path d="M192.843 15.9335C192.241 15.9335 191.732 15.725 191.315 15.3082C190.898 14.8913 190.69 14.3818 190.69 13.7797C190.69 13.1776 190.898 12.6681 191.315 12.2513C191.732 11.8344 192.241 11.626 192.843 11.626C193.422 11.626 193.909 11.8344 194.302 12.2513C194.719 12.6681 194.928 13.1776 194.928 13.7797C194.928 14.3818 194.719 14.8913 194.302 15.3082C193.909 15.725 193.422 15.9335 192.843 15.9335ZM194.372 19.0251V38.0614H191.211V19.0251H194.372Z" fill="#F8FEFF"/>
<path d="M209.729 18.6777C212.045 18.6777 213.921 19.3841 215.357 20.7967C216.793 22.1862 217.51 24.201 217.51 26.8411V38.0614H214.384V27.2927C214.384 25.3937 213.909 23.9463 212.96 22.9505C212.01 21.9315 210.713 21.422 209.069 21.422C207.402 21.422 206.07 21.9431 205.074 22.9852C204.102 24.0273 203.615 25.5442 203.615 27.5358V38.0614H200.454V19.0251H203.615V21.7346C204.241 20.762 205.086 20.0093 206.151 19.4767C207.24 18.9441 208.432 18.6777 209.729 18.6777Z" fill="#F8FEFF"/>
<path d="M233.304 38.0614L228.788 30.9749L224.446 38.0614H221.146L227.294 28.6127L221.146 19.0251H224.724L229.24 26.0769L233.547 19.0251H236.847L230.733 28.439L236.882 38.0614H233.304Z" fill="#F8FEFF"/>
</svg>
